<svg width="48" height="47" viewBox="0 0 48 47" fill="none" xmlns="http://www.w3.org/2000/svg">
<g clip-path="url(#clip0)">
<path d="M24 0C12.3689 0 2.90625 9.1247 2.90625 20.3404C2.90625 21.5833 2.90625 31.1984 2.90625 31.3694C2.90625 33.6126 4.79878 35.4375 7.125 35.4375H8.77312C9.35362 37.0157 10.9167 38.1496 12.75 38.1496C15.0762 38.1496 16.9687 36.3246 16.9687 34.0815V23.0525C16.9687 20.8093 15.0762 18.9844 12.75 18.9844C10.9167 18.9844 9.35362 20.1182 8.77312 21.6964H7.125C6.63197 21.6964 6.15891 21.7791 5.71875 21.9297V20.3404C5.71875 10.6201 13.9197 2.71205 24 2.71205C34.0803 2.71205 42.2812 10.6201 42.2812 20.3404V21.9297C41.8411 21.7791 41.368 21.6964 40.875 21.6964H39.2269C38.6464 20.1182 37.0833 18.9844 35.25 18.9844C32.9238 18.9844 31.0312 20.8093 31.0312 23.0525V34.0815C31.0312 36.3246 32.9238 38.1496 35.25 38.1496C35.6757 38.1496 36.0867 38.0879 36.4745 37.9743C35.9484 39.6433 34.338 40.8616 32.4375 40.8616H27.9769C27.3964 39.2834 25.8333 38.1496 24 38.1496C21.6738 38.1496 19.7812 39.9745 19.7812 42.2176C19.7812 44.4608 21.6738 46.2857 24 46.2857C25.8333 46.2857 27.3964 45.1519 27.9769 43.5737H32.4375C36.3145 43.5737 39.4687 40.5321 39.4687 36.7935V35.4375H40.875C43.2012 35.4375 45.0937 33.6126 45.0937 31.3694C45.0937 31.2009 45.0937 21.5823 45.0937 20.3404C45.0937 9.1247 35.6311 0 24 0ZM11.3437 23.0525C11.3437 22.3047 11.9746 21.6964 12.75 21.6964C13.5254 21.6964 14.1562 22.3047 14.1562 23.0525V34.0815C14.1562 34.8292 13.5254 35.4375 12.75 35.4375C11.9746 35.4375 11.3437 34.8292 11.3437 34.0815V23.0525ZM7.125 24.4085H8.53125V32.7254H7.125C6.34959 32.7254 5.71875 32.1171 5.71875 31.3694V25.7645C5.71875 25.0168 6.34959 24.4085 7.125 24.4085ZM24 43.5737C23.2246 43.5737 22.5937 42.9653 22.5937 42.2176C22.5937 41.4699 23.2246 40.8616 24 40.8616C24.7754 40.8616 25.4062 41.4699 25.4062 42.2176C25.4062 42.9653 24.7754 43.5737 24 43.5737ZM36.6562 34.0815C36.6562 34.8292 36.0254 35.4375 35.25 35.4375C34.4746 35.4375 33.8437 34.8292 33.8437 34.0815V23.0525C33.8437 22.3047 34.4746 21.6964 35.25 21.6964C36.0254 21.6964 36.6562 22.3047 36.6562 23.0525V34.0815ZM42.2812 31.3694C42.2812 32.1171 41.6504 32.7254 40.875 32.7254H39.4687V24.4085H40.875C41.6504 24.4085 42.2812 25.0168 42.2812 25.7645V31.3694Z" fill="#156963"/>
</g>
<defs>
<clipPath id="clip0">
<rect width="48" height="46.2857" fill="white"/>
</clipPath>
</defs>
</svg>
